<?xml version="1.0" encoding="UTF-8" standalone="no"?><!DOCTYPE svg PUBLIC "-//W3C//DTD SVG 1.1//EN" "http://www.w3.org/Graphics/SVG/1.1/DTD/svg11.dtd"><svg width="100%" height="100%" viewBox="0 0 152 152" version="1.1" xmlns="http://www.w3.org/2000/svg" xmlns:xlink="http://www.w3.org/1999/xlink" xml:space="preserve" xmlns:serif="http://www.serif.com/" style="fill-rule:evenodd;clip-rule:evenodd;stroke-linecap:round;stroke-linejoin:round;stroke-miterlimit:1.5;"><rect x="65.973" y="141" width="20" height="15" style="fill:#fff;stroke:#2196f3;stroke-width:6.04px;"/><path d="M136,56l-120,0l0,60c0,11.038 8.962,20 20,20l80,0c11.038,0 20,-8.962 20,-20l0,-60Z" style="fill:#2196f3;"/><path d="M96,131c0,-2.76 -2.24,-5 -5,-5l-30,0c-2.76,0 -5,2.24 -5,5l0,10c0,2.76 2.24,5 5,5l30,0c2.76,0 5,-2.24 5,-5l0,-10Z" style="fill:#2196f3;"/><rect x="36" y="13" width="80" height="46" style="fill:#fff;stroke:#2196f3;stroke-width:6.04px;stroke-linecap:square;"/><path d="M67,33.5c0,-1.38 -1.12,-2.5 -2.5,-2.5l-10,0c-1.38,0 -2.5,1.12 -2.5,2.5l0,5c0,1.38 1.12,2.5 2.5,2.5l10,0c1.38,0 2.5,-1.12 2.5,-2.5l0,-5Z" style="fill:#2196f3;"/><text x="47.689px" y="115.487px" style="font-family:'NotoSans-Black', 'Noto Sans', sans-serif;font-weight:900;font-size:54.446px;fill:#fff;">W</text><path d="M100,33.5c0,-1.38 -1.12,-2.5 -2.5,-2.5l-10,0c-1.38,0 -2.5,1.12 -2.5,2.5l0,5c0,1.38 1.12,2.5 2.5,2.5l10,0c1.38,0 2.5,-1.12 2.5,-2.5l0,-5Z" style="fill:#2196f3;"/></svg>